<?xml version="1.0" encoding="UTF-8"?> <svg xmlns="http://www.w3.org/2000/svg" width="60" height="60" viewBox="0 0 60 60" fill="none"><path d="M54.0009 32.6588V15.6702C54.0009 13.3885 52.1446 11.5321 49.8628 11.5321H46.2295L44.6365 7.14157C44.2967 6.20515 43.5608 5.48648 42.6175 5.16994C41.6755 4.85381 40.6571 4.9827 39.8234 5.52354L36.098 7.93927L35.8086 7.14157C35.4688 6.20515 34.733 5.48648 33.7897 5.16994C32.8476 4.85381 31.8293 4.9827 30.9956 5.52354L29.0438 6.78909C28.6603 7.03776 28.551 7.55025 28.7998 7.93374C29.0486 8.31734 29.5609 8.42647 29.9445 8.1778L31.8963 6.91225C32.304 6.64761 32.8022 6.58455 33.2633 6.73914C33.7254 6.89413 34.0861 7.24661 34.2528 7.70616L34.6728 8.86361L22.0309 17.0615H16.245L27.1398 9.99669C27.5232 9.74792 27.6325 9.23554 27.3838 8.85204C27.1349 8.46844 26.6227 8.35921 26.2391 8.60798L21.7194 11.5391C21.6848 11.5346 21.6494 11.5323 21.6135 11.5323H10.1372C6.63846 11.5322 3.79214 14.3784 3.79214 17.8771V48.8637C3.79214 51.754 6.14358 54.1053 9.03371 54.1053H48.7593C51.6494 54.1053 54.0009 51.754 54.0009 48.8638V45.4982C54.0009 45.0411 53.6305 44.6706 53.1733 44.6706C52.7161 44.6706 52.3457 45.0412 52.3457 45.4982V48.8638C52.3457 50.8413 50.7369 52.4502 48.7593 52.4502H13.1718V27.8422C13.1718 27.3851 12.8013 27.0146 12.3442 27.0146C11.8871 27.0146 11.5166 27.3852 11.5166 27.8422V52.4501H9.03371C7.05615 52.4501 5.44733 50.8413 5.44733 48.8637V22.1706C6.60867 23.4453 8.28106 24.2462 10.1371 24.2462H49.8627C50.7935 24.2462 51.6535 23.9372 52.3456 23.4166V32.544H36.6209C33.7307 32.544 31.3793 34.8954 31.3793 37.7855V37.8049C31.3793 40.695 33.7307 43.0463 36.6209 43.0463H53.1732C54.8464 43.0463 56.2077 41.6851 56.2077 40.0117V35.5786C56.2078 34.1922 55.2732 33.0199 54.0009 32.6588ZM49.8628 13.1873C51.2317 13.1873 52.3457 14.301 52.3457 15.6702V17.0615H48.2359L46.8302 13.1873H49.8628ZM49.8628 22.591H10.1372C7.55123 22.591 5.44744 20.4872 5.44744 17.9013V17.8772C5.44744 15.2913 7.55123 13.1875 10.1372 13.1875H19.1773L13.2028 17.0618H11.2407C10.7835 17.0618 10.4131 17.4323 10.4131 17.8893C10.4131 18.3464 10.7835 18.7169 11.2407 18.7169H13.4358C13.4442 18.717 13.4526 18.717 13.4611 18.7169H22.2638C22.2722 18.717 22.2806 18.717 22.289 18.7169H38.8279C39.2851 18.7169 39.6555 18.3463 39.6555 17.8893C39.6555 17.4322 39.2851 17.0618 38.8279 17.0618H25.0729L40.7241 6.91256C41.1319 6.64792 41.6299 6.58486 42.0911 6.73944C42.5532 6.89444 42.9139 7.24691 43.0806 7.70647L46.4751 17.0619H42.1385C41.6813 17.0619 41.3109 17.4325 41.3109 17.8894C41.3109 18.3466 41.6813 18.717 42.1385 18.717H47.6367C47.6496 18.7174 47.6624 18.7174 47.6752 18.717H52.3457V20.1084C52.3457 21.4773 51.2317 22.591 49.8628 22.591ZM54.5527 40.0118C54.5527 40.7724 53.9339 41.3912 53.1733 41.3912H36.621C34.6434 41.3912 33.0346 39.7824 33.0346 37.805V37.7856C33.0346 35.8081 34.6434 34.1992 36.621 34.1992H53.1633C53.1691 34.1993 53.1751 34.1993 53.1811 34.1992C53.938 34.2035 54.5527 34.8206 54.5527 35.5786V40.0118Z" fill="#161616"></path><path d="M37.1726 35.3088C35.8037 35.3088 34.6898 36.4242 34.6898 37.7952C34.6898 39.1662 35.8036 40.2816 37.1726 40.2816C38.5417 40.2816 39.6555 39.1663 39.6555 37.7952C39.6555 36.4241 38.5417 35.3088 37.1726 35.3088ZM37.1726 38.6265C36.7163 38.6265 36.3451 38.2536 36.3451 37.7952C36.3451 37.3368 36.7163 36.9639 37.1726 36.9639C37.629 36.9639 38.0002 37.3368 38.0002 37.7952C38.0002 38.2536 37.629 38.6265 37.1726 38.6265Z" fill="#161616"></path></svg> 