<?xml version="1.0" encoding="UTF-8"?> <svg xmlns="http://www.w3.org/2000/svg" width="60" height="60" viewBox="0 0 60 60" fill="none"><path d="M13.8094 40.2188C14.1797 40.5804 14.6074 40.8781 15.075 41.1C15.2328 44.223 15.9043 47.2986 17.0625 50.2031C17.5514 51.3637 17.8063 52.6094 17.8125 53.8687V57.1875C17.8125 57.9334 18.1088 58.6488 18.6363 59.1762C19.1637 59.7037 19.8791 60 20.625 60H31.875C32.6209 60 33.3363 59.7037 33.8637 59.1762C34.3912 58.6488 34.6875 57.9334 34.6875 57.1875C34.6889 55.5814 35.2378 54.0239 36.2438 52.7719L42.3656 45.1406C42.4688 45.0281 42.5625 44.9062 42.6563 44.7937C42.75 44.6812 42.8438 44.5969 42.9281 44.4844C43.0125 44.3719 43.1063 44.2313 43.1906 44.1L43.425 43.7625C43.5094 43.6219 43.5656 43.4813 43.6406 43.35C43.7156 43.2188 43.7719 43.1062 43.8281 42.9844C43.8844 42.8625 43.95 42.6844 44.0063 42.5344L44.1469 42.1688C44.1469 42.0094 44.2313 41.85 44.2688 41.6812C44.3063 41.5125 44.3344 41.4469 44.3625 41.325C44.3906 41.2031 44.3625 40.9781 44.4281 40.8094C44.4938 40.6406 44.4281 40.575 44.4844 40.4531C44.5406 40.3312 44.4844 40.0594 44.4844 39.8625C44.4844 39.6656 44.4844 39.675 44.4844 39.5719C44.4749 39.2766 44.4467 38.9823 44.4 38.6906L44.325 38.2406L43.3875 32.1656C43.2827 31.5187 43.0936 30.8884 42.825 30.2906C42.8101 30.2513 42.7912 30.2136 42.7688 30.1781C41.9311 28.4072 40.4337 27.0343 38.5969 26.3531L35.6719 25.3125L38.925 22.125L42.1875 18.75C42.2975 18.6436 42.432 18.5657 42.5791 18.5232C42.7262 18.4807 42.8814 18.4749 43.0313 18.5063C45.3286 18.9918 47.7246 18.5976 49.7453 17.4015C51.766 16.2054 53.2642 14.2946 53.9438 12.0469C54.3142 10.8337 54.4322 9.55745 54.2906 8.29688C54.2506 7.94421 54.1113 7.61015 53.889 7.33352C53.6666 7.05689 53.3703 6.84905 53.0345 6.73416C52.6987 6.61928 52.3371 6.60207 51.9919 6.68453C51.6467 6.76699 51.332 6.94574 51.0844 7.2L48.4781 9.8625C48.391 9.95037 48.2873 10.0201 48.173 10.0677C48.0588 10.1153 47.9363 10.1398 47.8125 10.1398C47.6887 10.1398 47.5662 10.1153 47.452 10.0677C47.3377 10.0201 47.234 9.95037 47.1469 9.8625L44.5219 7.24688C44.4327 7.15706 44.3627 7.05012 44.3159 6.9325C44.2692 6.81488 44.2468 6.68902 44.25 6.5625C44.2493 6.43688 44.2738 6.3124 44.3221 6.19645C44.3704 6.08049 44.4415 5.97543 44.5312 5.8875L47.1469 3.225C47.3968 2.97464 47.5708 2.65868 47.6488 2.31362C47.7267 1.96857 47.7055 1.6085 47.5875 1.275C47.4681 0.948383 47.2601 0.661422 46.9869 0.446194C46.7138 0.230967 46.3861 0.0959547 46.0406 0.0562505C44.7794 -0.0758189 43.5044 0.0452992 42.2906 0.412501C40.0536 1.10132 38.1551 2.60205 36.9685 4.61966C35.7819 6.63726 35.3929 9.02578 35.8781 11.3156C35.9132 11.4705 35.9084 11.6317 35.8641 11.7842C35.8199 11.9367 35.7376 12.0755 35.625 12.1875L30.1688 17.5313C29.7362 16.9617 29.1499 16.5277 28.4788 16.2805C27.8078 16.0332 27.08 15.983 26.3814 16.1357C25.6827 16.2884 25.0423 16.6378 24.5357 17.1425C24.029 17.6472 23.6773 18.2863 23.5219 18.9844C22.964 18.8264 22.3771 18.7999 21.8073 18.907C21.2375 19.0141 20.7002 19.2519 20.2378 19.6017C19.7754 19.9514 19.4004 20.4037 19.1422 20.9228C18.8841 21.442 18.7498 22.0139 18.75 22.5938C18.7471 23.0389 18.8266 23.4807 18.9844 23.8969H18.7594C18.1733 23.9906 17.6179 24.222 17.1388 24.5722C16.6596 24.9224 16.2704 25.3813 16.0032 25.9112C15.7359 26.4411 15.5983 27.0269 15.6015 27.6204C15.6048 28.2138 15.7489 28.7981 16.0219 29.325C15.0922 29.6157 14.3122 30.2566 13.8467 31.1122C13.3813 31.9679 13.267 32.971 13.5281 33.9094C12.7883 34.8051 12.4075 35.9436 12.4594 37.1041C12.5114 38.2647 12.9925 39.3646 13.8094 40.1906V40.2188ZM14.5875 35.6906L14.7563 35.8125C14.8465 35.8985 14.9437 35.9769 15.0469 36.0469C15.2308 36.1727 15.4253 36.2825 15.6281 36.375L19.3781 37.9875C19.5449 38.0608 19.7173 38.1203 19.8938 38.1656L19.1344 38.9156C19.0152 39.0294 18.8866 39.1329 18.75 39.225L18.6188 39.3094L18.3094 39.4688L18.1406 39.5438L17.7844 39.6469H17.5125H17.3625C17.0013 39.6675 16.6393 39.6231 16.2938 39.5156C15.8804 39.3841 15.5044 39.1559 15.1969 38.85C14.7838 38.4388 14.5087 37.9094 14.4096 37.335C14.3105 36.7606 14.3923 36.1696 14.6438 35.6437L14.5875 35.6906ZM39.7875 29.25C40.697 30.1031 41.2971 31.2343 41.4937 32.4656L42.5531 39.0281C42.5889 39.2484 42.6108 39.4707 42.6188 39.6937C42.6483 40.4673 42.5197 41.2388 42.2408 41.961C41.962 42.6831 41.5387 43.3408 40.9969 43.8937L40.9313 43.9594L34.7812 51.5625C33.4985 53.1558 32.8033 55.1421 32.8125 57.1875C32.8125 57.4361 32.7137 57.6746 32.5379 57.8504C32.3621 58.0262 32.1236 58.125 31.875 58.125H20.625C20.3764 58.125 20.1379 58.0262 19.9621 57.8504C19.7863 57.6746 19.6875 57.4361 19.6875 57.1875V53.8687C19.6702 52.3584 19.3515 50.8667 18.75 49.4812C17.7406 46.9562 17.1271 44.2904 16.9313 41.5781H17.0906C17.2855 41.5733 17.4797 41.5545 17.6719 41.5219C17.7499 41.5265 17.8282 41.5265 17.9063 41.5219C18.1297 41.4813 18.3492 41.4217 18.5625 41.3438L18.7969 41.2781C19.0332 41.1795 19.262 41.0635 19.4813 40.9312L19.6313 40.8563C19.8967 40.6839 20.1448 40.4861 20.3719 40.2656L25.6313 35.1C26.2366 34.9353 26.7869 34.6116 27.225 34.1625L27.2813 34.1156C27.4189 33.974 27.5473 33.8237 27.6656 33.6656C27.9714 33.2473 28.1826 32.7675 28.2844 32.2594C28.5773 32.2643 28.8698 32.236 29.1563 32.175C29.8364 32.8407 30.6562 33.3467 31.5563 33.6562L33.7875 34.5094C34.0366 34.5965 34.2564 34.7515 34.422 34.9569C34.5877 35.1624 34.6926 35.41 34.725 35.6719C34.7599 35.9932 34.6867 36.3171 34.5169 36.5921C34.3471 36.8672 34.0904 37.0778 33.7875 37.1906C28.7625 39.0656 25.9219 42.2906 25.35 46.7438C25.3122 46.9886 25.3728 47.2384 25.5186 47.4386C25.6644 47.6389 25.8835 47.7733 26.1281 47.8125H26.25C26.4789 47.8144 26.7006 47.7326 26.8733 47.5823C27.046 47.4321 27.1578 47.2238 27.1875 46.9969C27.6938 43.2469 30.0656 40.6031 34.4438 38.9625C35.1354 38.6953 35.7188 38.206 36.1023 37.5714C36.4857 36.9368 36.6476 36.1928 36.5625 35.4562C36.4874 34.8698 36.2552 34.3145 35.8905 33.8492C35.5258 33.3838 35.0421 33.0256 34.4906 32.8125L32.2313 31.875C31.4171 31.5913 30.6969 31.0884 30.15 30.4219C30.0301 30.2787 29.9234 30.1249 29.8313 29.9625C29.775 29.8781 29.7188 29.7938 29.6719 29.7094C29.5712 29.5348 29.4835 29.353 29.4094 29.1656C29.3625 29.0438 29.3156 28.9219 29.2781 28.7906C29.2406 28.6594 29.2125 28.5563 29.1844 28.4438C29.1562 28.3313 29.1375 28.1625 29.1188 28.0219C29.1095 27.9002 29.1095 27.778 29.1188 27.6563C29.114 27.6189 29.114 27.5811 29.1188 27.5438C29.1047 27.3722 29.1047 27.1997 29.1188 27.0281C29.1141 26.9657 29.1141 26.903 29.1188 26.8406C29.1136 26.7908 29.1136 26.7405 29.1188 26.6906C29.1558 26.4297 29.2154 26.1725 29.2969 25.9219C29.3761 25.6897 29.5432 25.4978 29.7622 25.3873C29.9813 25.2769 30.235 25.2568 30.4688 25.3313L37.8937 28.125C38.5914 28.3748 39.2344 28.7568 39.7875 29.25ZM36.9094 13.4813C37.2381 13.1509 37.4795 12.7441 37.6121 12.2974C37.7446 11.8507 37.7641 11.378 37.6688 10.9219C37.422 9.79145 37.4477 8.61853 37.7437 7.5C38.0581 6.25897 38.6875 5.12014 39.5712 4.1938C40.4548 3.26745 41.5627 2.58499 42.7875 2.2125C43.7658 1.90647 44.7977 1.81062 45.8156 1.93125L43.2 4.59375C42.9378 4.85504 42.7298 5.16552 42.5878 5.50739C42.4459 5.84925 42.3728 6.21577 42.3728 6.58594C42.3728 6.9561 42.4459 7.32263 42.5878 7.66449C42.7298 8.00635 42.9378 8.31683 43.2 8.57812L45.8531 11.25C46.3901 11.7618 47.1035 12.0473 47.8453 12.0473C48.5871 12.0473 49.3005 11.7618 49.8375 11.25L52.5 8.54062C52.6101 9.54875 52.5177 10.5687 52.2281 11.5406C51.8594 12.7834 51.1709 13.9077 50.2315 14.801C49.2922 15.6943 48.1347 16.3254 46.875 16.6313C45.7476 16.9322 44.5644 16.9579 43.425 16.7063C42.9675 16.6093 42.4929 16.6279 42.0444 16.7605C41.5959 16.8931 41.1875 17.1354 40.8563 17.4656L34.2 24.0281V23.9719C34.1176 23.7258 34.0076 23.4899 33.8719 23.2688L31.2188 19.1344L36.9094 13.4813ZM26.1844 18.1688C26.3924 18.037 26.6244 17.9475 26.867 17.9054C27.1097 17.8633 27.3582 17.8694 27.5985 17.9234C27.8388 17.9774 28.0661 18.0781 28.2674 18.22C28.4688 18.3618 28.6402 18.5419 28.7719 18.75L29.2313 19.4719L32.0438 23.9156L31.1063 23.5688C30.7573 23.447 30.3873 23.3968 30.0185 23.4209C29.6497 23.4451 29.2895 23.5432 28.9594 23.7094C28.8686 23.757 28.781 23.8102 28.6969 23.8687L25.3688 20.1656C25.2867 19.7921 25.3209 19.4024 25.4667 19.0488C25.6125 18.6952 25.8629 18.3947 26.1844 18.1875V18.1688ZM21.1781 21.2531C21.3526 21.076 21.5606 20.9353 21.7899 20.8392C22.0193 20.7432 22.2654 20.6938 22.5141 20.6938C22.7627 20.6938 23.0089 20.7432 23.2382 20.8392C23.4676 20.9353 23.6755 21.076 23.85 21.2531L27.525 25.35C27.4781 25.5 27.4406 25.65 27.3938 25.8094C27.0267 27.2589 27.1656 28.7902 27.7875 30.15L22.6781 25.3781L21.1781 23.8781C20.8289 23.5268 20.6329 23.0516 20.6329 22.5563C20.6329 22.0609 20.8289 21.5857 21.1781 21.2344V21.2531ZM17.8125 26.5312C18.1037 26.1288 18.5426 25.8583 19.033 25.7792C19.5234 25.7001 20.0252 25.8189 20.4281 26.1094L21.3656 26.8219L26.475 31.575C26.4463 31.9131 26.3265 32.2371 26.1281 32.5125C26.0668 32.5969 25.9978 32.6753 25.9219 32.7469C25.6581 32.9823 25.3331 33.1383 24.9844 33.1969C24.6464 33.2655 24.2961 33.2395 23.9719 33.1219L18.9 29.5594L18.1969 29.0438C17.829 28.7498 17.5852 28.3281 17.514 27.8626C17.4428 27.3971 17.5493 26.9218 17.8125 26.5312ZM15.3844 32.1562C15.5308 31.8209 15.7721 31.5356 16.0786 31.3357C16.3851 31.1358 16.7434 31.03 17.1094 31.0312C17.367 31.0292 17.6223 31.0802 17.8594 31.1812H17.9344L22.6781 34.5094C22.6794 34.7569 22.6316 35.0023 22.5375 35.2313C22.4556 35.4649 22.3269 35.6794 22.1593 35.8615C21.9916 36.0437 21.7886 36.1897 21.5625 36.2906C21.1033 36.4807 20.5874 36.4807 20.1281 36.2906L16.3781 34.6688C16.2689 34.6207 16.1652 34.561 16.0688 34.4906C15.8311 34.3012 15.6389 34.0609 15.5063 33.7875L15.45 33.6844C15.3393 33.4511 15.278 33.1974 15.2699 32.9393C15.2619 32.6811 15.3072 32.4242 15.4031 32.1844L15.3844 32.1562Z" fill="#161616"></path><path d="M23.9531 11.0438C23.9007 11.156 23.8939 11.2842 23.9341 11.4014C23.9743 11.5185 24.0584 11.6155 24.1688 11.6719L26.0438 12.6094C26.1084 12.6394 26.1787 12.6553 26.25 12.6563C26.3563 12.6567 26.4595 12.621 26.5429 12.5551C26.6262 12.4891 26.6846 12.3968 26.7086 12.2933C26.7326 12.1897 26.7207 12.0811 26.6748 11.9853C26.629 11.8894 26.5519 11.812 26.4563 11.7656L24.5813 10.8281C24.469 10.7757 24.3408 10.7689 24.2236 10.8091C24.1065 10.8493 24.0095 10.9335 23.9531 11.0438Z" fill="#161616"></path><path d="M27.1875 9.84374C27.249 9.84449 27.3099 9.83236 27.3664 9.80814C27.423 9.78393 27.4738 9.74815 27.5156 9.70311C27.5605 9.66103 27.5962 9.6102 27.6206 9.55376C27.6451 9.49733 27.6577 9.43649 27.6577 9.37499C27.6577 9.31349 27.6451 9.25265 27.6206 9.19621C27.5962 9.13978 27.5605 9.08895 27.5156 9.04686L25.6406 7.17186C25.5536 7.08484 25.4356 7.03595 25.3125 7.03595C25.1894 7.03595 25.0714 7.08484 24.9844 7.17186C24.8974 7.25889 24.8485 7.37692 24.8485 7.49999C24.8485 7.62306 24.8974 7.74109 24.9844 7.82811L26.8594 9.70311C26.9012 9.74815 26.952 9.78393 27.0086 9.80814C27.0651 9.83236 27.126 9.84449 27.1875 9.84374Z" fill="#161616"></path><path d="M30.4688 9.375V8.4375C30.4688 8.31318 30.4194 8.19395 30.3315 8.10604C30.2435 8.01814 30.1243 7.96875 30 7.96875C29.8757 7.96875 29.7565 8.01814 29.6685 8.10604C29.5806 8.19395 29.5312 8.31318 29.5312 8.4375V9.375C29.5312 9.49932 29.5806 9.61855 29.6685 9.70646C29.7565 9.79436 29.8757 9.84375 30 9.84375C30.1243 9.84375 30.2435 9.79436 30.3315 9.70646C30.4194 9.61855 30.4688 9.49932 30.4688 9.375Z" fill="#161616"></path></svg> 