<?xml version="1.0" encoding="UTF-8"?> <svg xmlns="http://www.w3.org/2000/svg" width="60" height="60" viewBox="0 0 60 60" fill="none"><path d="M14.7891 24.9141H2.32031C1.6875 24.9141 1.17188 25.4297 1.17188 26.0625C1.17188 26.6953 1.6875 27.2109 2.32031 27.2109H14.7891C15.4219 27.2109 15.9375 26.6953 15.9375 26.0625C15.9375 25.4297 15.4219 24.9141 14.7891 24.9141Z" fill="#161616"></path><path d="M14.7891 31.6875H9.04687C8.41406 31.6875 7.89844 32.2031 7.89844 32.8359C7.89844 33.4688 8.41406 33.9844 9.04687 33.9844H14.7891C15.4219 33.9844 15.9375 33.4688 15.9375 32.8359C15.9375 32.2031 15.4219 31.6875 14.7891 31.6875Z" fill="#161616"></path><path d="M14.7891 38.4609H5.32031C4.6875 38.4609 4.17188 38.9766 4.17188 39.6094C4.17188 40.2422 4.6875 40.7578 5.32031 40.7578H14.7891C15.4219 40.7578 15.9375 40.2422 15.9375 39.6094C15.9375 38.9766 15.4219 38.4609 14.7891 38.4609Z" fill="#161616"></path><path d="M56.9297 24.3516C55.9922 22.3594 54.75 20.5547 53.2265 18.9844C52.5 18.2109 51.6797 17.5078 50.8359 16.875L52.3359 14.8828C52.7109 14.3672 52.6172 13.6406 52.1015 13.2656C51.5859 12.8906 50.8594 12.9844 50.4844 13.5L48.8906 15.6094C47.8359 14.9766 46.7109 14.4609 45.5625 14.0391C44.5547 13.6875 43.5234 13.4062 42.4687 13.1953C41.789 13.0781 41.0859 12.9844 40.4062 12.9375V9.44531H42.7265C43.3594 9.44531 43.875 8.92969 43.875 8.29688C43.875 7.66406 43.3594 7.14844 42.7265 7.14844H35.7656C35.1328 7.14844 34.6172 7.66406 34.6172 8.29688C34.6172 8.92969 35.1328 9.44531 35.7656 9.44531H38.0859V12.8438C35.414 12.9375 32.7656 13.5703 30.3281 14.6953C28.3359 15.6328 26.5312 16.8516 24.9375 18.375C22.7109 20.4844 21 23.1328 19.9453 26.0156C19.5703 27.0234 19.289 28.1016 19.0781 29.1797C18.8672 30.2578 18.7734 31.3359 18.7265 32.4141C18.6562 35.5078 19.3125 38.6016 20.6484 41.4141C21.5859 43.3828 22.8047 45.1641 24.3281 46.7344C26.4609 48.9609 29.1094 50.6719 31.9922 51.7031C33 52.0547 34.0312 52.3359 35.0859 52.5469C36.1406 52.7344 37.1953 52.8516 38.2734 52.875C38.4375 52.875 38.625 52.875 38.789 52.875C41.6953 52.875 44.6015 52.2422 47.2265 51C49.1953 50.0859 51 48.8672 52.5703 47.3672C54.8203 45.2344 56.5547 42.5859 57.6094 39.6797C57.9844 38.6719 58.2656 37.5937 58.4531 36.5391C58.664 35.4609 58.7812 34.3594 58.8047 33.2812C58.8984 30.2109 58.2422 27.1172 56.9297 24.3516ZM56.2031 36.0938C56.0156 37.0547 55.7812 37.9687 55.4531 38.8828C54.5156 41.4375 52.9922 43.8047 51 45.6797C49.6172 46.9922 48.0234 48.0938 46.2656 48.8906C43.8047 50.0391 41.039 50.625 38.3672 50.5312C37.4297 50.5078 36.4922 50.4141 35.5547 50.2266C34.6172 50.0625 33.7031 49.8047 32.8125 49.5C30.2578 48.5859 27.914 47.0625 26.039 45.0938C24.7031 43.7109 23.6015 42.1172 22.7812 40.3828C21.6094 37.9219 21.0234 35.1562 21.0937 32.4375C21.1172 31.4766 21.2109 30.5156 21.3984 29.5781C21.5859 28.6172 21.8437 27.6797 22.1484 26.7891C23.0625 24.2344 24.5859 21.9141 26.5547 20.0391C27.9609 18.7031 29.5547 17.6016 31.3359 16.7812C33.6562 15.7031 36.2344 15.1406 38.789 15.1406C38.9297 15.1406 39.0937 15.1406 39.2344 15.1406C40.1719 15.1641 41.1094 15.2578 42.0469 15.4453C42.9844 15.6094 43.8984 15.8672 44.789 16.1953C47.3437 17.1094 49.6875 18.6094 51.5625 20.5781C52.8984 21.9844 54 23.5781 54.8437 25.3359C55.9922 27.7969 56.5781 30.5156 56.5078 33.2344C56.4844 34.1719 56.3906 35.1562 56.2031 36.0938Z" fill="#161616"></path><path d="M45.961 24.8203L41.0156 29.2969C40.7578 29.1328 40.5 29.0156 40.2188 28.8985C40.0078 28.8281 39.7969 28.7578 39.586 28.7344C39.3516 28.6875 39.1406 28.6641 38.9297 28.6641C38.2969 28.6406 37.6406 28.7813 37.0547 29.0625C36.6328 29.25 36.2578 29.5078 35.9297 29.836C35.461 30.2813 35.1094 30.8203 34.8985 31.4297C34.8281 31.6406 34.7578 31.8516 34.711 32.086C34.6641 32.3203 34.6406 32.5313 34.6406 32.7656C34.6172 33.4219 34.7578 34.0547 35.0391 34.6406C35.2266 35.0625 35.4844 35.4141 35.8125 35.7422C36.2578 36.211 36.8203 36.5625 37.4063 36.7735C37.6172 36.8438 37.8281 36.9141 38.0391 36.9375C38.25 36.9844 38.4844 37.0078 38.6953 37.0078C38.7422 37.0078 38.7656 37.0078 38.8125 37.0078C39.4219 37.0078 40.0313 36.8672 40.5703 36.6094C40.9688 36.4219 41.3672 36.1641 41.6953 35.8594C42.1641 35.4141 42.5156 34.8516 42.75 34.2656C42.8203 34.0547 42.8906 33.8438 42.9375 33.6094C42.9844 33.375 43.0078 33.1641 43.0078 32.9297C43.0313 32.2969 42.8906 31.6406 42.6094 31.0547C42.6094 31.0313 42.586 31.0313 42.586 31.0078L47.5547 26.5313C48.0235 26.1094 48.0703 25.3594 47.6485 24.8906C47.1797 24.4453 46.4531 24.3985 45.961 24.8203ZM40.6406 33.1875C40.6172 33.2813 40.5938 33.3985 40.5703 33.4922C40.4766 33.75 40.3125 34.0078 40.1016 34.1953C39.961 34.336 39.7969 34.4531 39.6094 34.5235C39.3516 34.6406 39.0703 34.6875 38.7891 34.6875C38.6953 34.6875 38.5781 34.6641 38.4844 34.6641C38.3906 34.6406 38.2969 34.6172 38.2031 34.5938C37.9453 34.5 37.6875 34.336 37.5 34.125C37.3594 33.9844 37.2422 33.8203 37.1485 33.6328C37.0313 33.375 36.961 33.0938 36.961 32.8125C36.961 32.7188 36.9844 32.6016 36.9844 32.5078C37.0078 32.4141 37.0313 32.2969 37.0547 32.2031C37.1485 31.9453 37.3125 31.6875 37.5235 31.5C37.6641 31.3594 37.8281 31.2422 38.0156 31.1485C38.2735 31.0313 38.5313 30.9844 38.7891 30.9844C38.8125 30.9844 38.8125 30.9844 38.836 30.9844C38.9297 30.9844 39.0235 31.0078 39.1406 31.0078C39.2344 31.0313 39.3281 31.0547 39.4219 31.0781C39.7031 31.1719 39.9375 31.336 40.125 31.5469C40.2656 31.6875 40.3828 31.875 40.4766 32.0391C40.5938 32.2969 40.6641 32.5781 40.6406 32.8594C40.6641 32.9766 40.6406 33.0938 40.6406 33.1875Z" fill="#161616"></path></svg> 