<?xml version="1.0" encoding="UTF-8"?> <svg xmlns="http://www.w3.org/2000/svg" width="60" height="60" viewBox="0 0 60 60" fill="none"><path d="M23.4375 51.5625V55.3125C23.4375 56.3494 22.5994 57.1875 21.5625 57.1875H17.8125" stroke="#161616" stroke-width="2" stroke-miterlimit="10" stroke-linecap="round" stroke-linejoin="round"></path><path d="M55.3125 51.5625V55.3125C55.3125 56.3494 54.4744 57.1875 53.4375 57.1875H51.5625C50.5256 57.1875 49.6875 56.3494 49.6875 55.3125V51.5625" stroke="#161616" stroke-width="2" stroke-miterlimit="10" stroke-linecap="round" stroke-linejoin="round"></path><path d="M57.1875 51.5625H21.5625" stroke="#161616" stroke-width="2" stroke-miterlimit="10" stroke-linecap="round" stroke-linejoin="round"></path><path d="M21.555 39.2363C24.7706 38.6306 29.5894 38.4375 36.5625 38.4375C52.5 38.4375 57.1875 39.5306 57.1875 44.0625V46.29" stroke="#161616" stroke-width="2" stroke-miterlimit="10" stroke-linecap="round" stroke-linejoin="round"></path><path d="M49.6875 47.8125V45.9375C49.6875 44.9062 50.5312 44.0625 51.5625 44.0625H57.1875V47.8125H49.6875Z" stroke="#161616" stroke-width="2" stroke-miterlimit="10" stroke-linecap="round" stroke-linejoin="round"></path><path d="M20.625 44.0625H21.5625C22.5938 44.0625 23.4375 44.9062 23.4375 45.9375V47.8125H17.8125" stroke="#161616" stroke-width="2" stroke-miterlimit="10" stroke-linecap="round" stroke-linejoin="round"></path><path d="M27.1875 47.8125C27.1875 45.7425 28.8675 44.0625 30.9375 44.0625H42.1875C44.2575 44.0625 45.9375 45.7425 45.9375 47.8125" stroke="#161616" stroke-width="2" stroke-miterlimit="10" stroke-linecap="round" stroke-linejoin="round"></path><path d="M53.5669 39.7612L50.2875 29.9062C49.9481 28.9125 48.8606 27.9937 47.8294 27.8625C45.6 27.5812 41.5106 27.1875 36.5606 27.1875C31.6106 27.1875 27.5231 27.5812 25.2919 27.8625C24.2606 27.9937 23.1731 28.9125 22.8337 29.9062L21.2456 34.6875" stroke="#161616" stroke-width="2" stroke-miterlimit="10" stroke-linecap="round" stroke-linejoin="round"></path><path d="M17.8125 57.1875V27.1875C19.1981 27.1875 20.4094 26.4356 21.0581 25.3162C21.3787 24.7631 21.5625 24.1219 21.5625 23.4375V20.625C21.5625 18.0469 19.4531 15.9375 16.875 15.9375H7.5C4.91062 15.9375 2.8125 18.0356 2.8125 20.625V23.4375C2.8125 25.5075 4.4925 27.1875 6.5625 27.1875V36.5625L2.8125 57.1875" stroke="#161616" stroke-width="2" stroke-miterlimit="10" stroke-linecap="round" stroke-linejoin="round"></path><path d="M12.1875 12.1875C14.7763 12.1875 16.875 10.0888 16.875 7.5C16.875 4.91117 14.7763 2.8125 12.1875 2.8125C9.59867 2.8125 7.5 4.91117 7.5 7.5C7.5 10.0888 9.59867 12.1875 12.1875 12.1875Z" stroke="#161616" stroke-width="2" stroke-miterlimit="10" stroke-linecap="round" stroke-linejoin="round"></path><path d="M17.8125 24.375V23.7769C17.8125 22.6181 16.7719 21.735 15.63 21.9281L8.745 23.0738C7.60313 23.2631 6.5625 22.3838 6.5625 21.2231" stroke="#161616" stroke-width="2" stroke-miterlimit="10" stroke-linecap="round" stroke-linejoin="round"></path><path d="M14.0625 57.1875L12.1875 35.625L6.5625 57.1875" stroke="#161616" stroke-width="2" stroke-miterlimit="10" stroke-linecap="round" stroke-linejoin="round"></path><path d="M10.3125 27.1875H17.8125" stroke="#161616" stroke-width="2" stroke-miterlimit="10" stroke-linecap="round" stroke-linejoin="round"></path></svg> 